<?xml version="1.0" encoding="utf-8"?>
<!DOCTYPE svg PUBLIC "-//W3C//DTD SVG 1.1//EN" "http://www.w3.org/Graphics/SVG/1.1/DTD/svg11.dtd">
<svg version="1.1" id="Capa_1" xmlns="http://www.w3.org/2000/svg" xmlns:xlink="http://www.w3.org/1999/xlink" x="0px" y="0px"
	 width="612px" height="792px" viewBox="0 0 612 792" enable-background="new 0 0 612 792" xml:space="preserve">
<path d="M466.344,322.56c3.266-1.632,5.61-3.978,7.038-7.038s1.53-6.018,0.306-8.874c-1.224-2.856-3.568-4.794-7.036-5.814
	c-3.47-1.02-6.834-0.714-10.1,0.918l-31.212,14.076c-3.264,1.632-5.712,3.876-7.344,6.732s-1.632,5.916,0,9.18
	c1.224,2.856,3.468,4.794,6.73,5.814c3.266,1.021,6.528,0.714,9.792-0.918L466.344,322.56L466.344,322.56z M459.612,421.704
	c3.672,0.408,6.834-0.306,9.484-2.143c2.652-1.837,4.388-4.387,5.202-7.649c0.816-3.264,0-6.12-2.448-8.568
	c-2.446-2.447-5.304-3.876-8.566-4.284l-34.272-5.508c-3.672-0.816-6.936-0.306-9.792,1.53c-2.854,1.836-4.69,4.386-5.508,7.65
	c-0.408,3.264,0.51,6.118,2.754,8.566s5.202,4.08,8.874,4.896L459.612,421.704L459.612,421.704z M410.04,246.672
	c4.08-7.344,3.264-13.26-2.448-17.748c-2.854-1.632-5.916-2.04-9.18-1.224c-3.264,0.816-5.916,2.856-7.956,6.12l-18.36,29.376
	c-2.04,3.264-2.854,6.426-2.446,9.486c0.406,3.06,1.836,5.61,4.282,7.65c2.856,2.04,5.916,2.55,9.182,1.53
	c3.264-1.021,5.916-3.162,7.956-6.426L410.04,246.672L410.04,246.672z M397.8,362.952c0-13.056-2.346-24.582-7.038-34.578
	c-4.69-9.996-11.118-18.36-19.276-25.092c-8.16-6.732-17.852-11.832-29.07-15.3c-11.22-3.468-23.358-5.202-36.414-5.202h-0.612
	c-26.112,0-47.838,6.834-65.178,20.502s-26.01,33.558-26.01,59.67v2.448c0,0.408,0.204,0.816,0.612,1.224
	c0,2.856,0.204,5.61,0.612,8.262c0.408,2.652,0.816,5.406,1.224,8.262c2.04,10.608,5.712,21.42,11.016,32.436
	c5.304,11.016,11.016,22.848,17.136,35.496c4.08,8.568,6.936,16.218,8.568,22.95c1.632,6.73,2.958,12.546,3.978,17.44
	c1.02,4.896,2.04,8.772,3.06,11.628c1.02,2.856,3.162,4.488,6.426,4.896h78.336c2.856-0.408,4.896-2.04,6.12-4.896
	c1.224-2.854,2.244-6.73,3.06-11.628c0.816-4.896,2.04-10.71,3.672-17.44c1.634-6.732,4.488-14.382,8.568-22.95
	c6.528-12.648,12.444-24.48,17.748-35.496s8.977-21.828,11.016-32.436c0.408-2.856,0.816-5.61,1.226-8.262
	c0.408-2.652,0.61-5.406,0.61-8.262V365.4c0-0.408,0.104-0.816,0.308-1.224C397.698,363.768,397.8,363.36,397.8,362.952z
	 M352.512,527.58c0-4.08-2.04-6.12-6.12-6.12h-80.784c-4.08,0-6.12,2.04-6.12,6.12v14.076c0,4.08,2.04,6.12,6.12,6.12h80.784
	c4.08,0,6.12-2.04,6.12-6.12V527.58z M352.512,567.36c0-4.488-2.04-6.732-6.12-6.732h-80.784c-4.08,0-6.12,2.244-6.12,6.732v14.074
	c0,4.08,2.04,6.12,6.12,6.12h80.784c4.08,0,6.12-2.04,6.12-6.12V567.36z M204.408,228.924c-2.448,2.04-3.978,4.692-4.59,7.956
	c-0.612,3.264,0.102,6.528,2.142,9.792l18.972,28.764c2.04,3.264,4.692,5.406,7.956,6.426c3.264,1.02,6.324,0.51,9.18-1.53
	c2.448-2.04,3.876-4.59,4.284-7.65c0.408-3.06-0.408-6.222-2.448-9.486l-18.36-29.376c-2.04-3.264-4.692-5.304-7.956-6.12
	C210.324,226.884,207.264,227.292,204.408,228.924z M186.66,416.196c3.672-0.816,6.63-2.448,8.874-4.896
	c2.244-2.448,3.162-5.304,2.754-8.566c-0.816-3.266-2.652-5.814-5.508-7.65c-2.856-1.836-6.12-2.346-9.792-1.53l-34.272,5.508
	c-3.264,0.408-6.12,1.837-8.568,4.284c-2.448,2.448-3.264,5.306-2.448,8.568c0.816,3.264,2.55,5.812,5.202,7.649
	c2.652,1.836,5.814,2.551,9.486,2.143L186.66,416.196L186.66,416.196z M138.312,306.648c-1.224,2.856-1.122,5.814,0.306,8.874
	c1.428,3.06,3.774,5.406,7.038,7.038l31.824,14.076c3.264,1.632,6.528,1.938,9.792,0.918s5.508-2.958,6.732-5.814
	c1.632-3.264,1.632-6.324,0-9.18c-1.632-2.856-4.08-5.1-7.344-6.732l-31.212-14.076c-3.264-1.632-6.63-1.938-10.098-0.918
	C141.882,301.854,139.536,303.792,138.312,306.648z M294.984,252.18c0,3.672,1.122,6.834,3.366,9.486
	c2.244,2.652,4.998,3.978,8.262,3.978c3.264,0,5.916-1.326,7.956-3.978s3.06-5.814,3.06-9.486v-34.272
	c0-3.672-1.02-6.834-3.06-9.486c-2.04-2.652-4.692-3.978-7.956-3.978c-3.264,0-6.02,1.326-8.262,3.978
	c-2.244,2.652-3.366,5.814-3.366,9.486V252.18z M306,90c42.024,0,81.702,8.058,119.034,24.174
	c37.332,16.116,69.768,37.944,97.308,65.484s49.368,59.976,65.484,97.308S612,353.976,612,396c0,28.152-3.672,55.284-11.016,81.396
	c-7.346,26.11-17.646,50.488-30.906,73.134c-13.26,22.644-29.172,43.248-47.736,61.812c-18.562,18.564-39.168,34.478-61.812,47.736
	c-22.646,13.26-47.022,23.562-73.135,30.906C361.284,698.328,334.152,702,306,702c-28.152,0-55.284-3.672-81.396-11.016
	c-26.112-7.346-50.49-17.646-73.134-30.906c-22.644-13.26-43.248-29.172-61.812-47.736c-18.564-18.562-34.476-39.168-47.736-61.812
	c-13.26-22.646-23.562-47.022-30.906-73.134C3.672,451.284,0,424.152,0,396c0-28.152,3.672-55.284,11.016-81.396
	c7.344-26.112,17.646-50.49,30.906-73.134c13.26-22.644,29.172-43.248,47.736-61.812c18.564-18.564,39.168-34.476,61.812-47.736
	c22.644-13.26,47.022-23.562,73.134-30.906C250.716,93.672,277.848,90,306,90z"/>
</svg>
