<?xml version="1.0" encoding="utf-8"?>
<!DOCTYPE svg PUBLIC "-//W3C//DTD SVG 1.1//EN" "http://www.w3.org/Graphics/SVG/1.1/DTD/svg11.dtd">
<svg version="1.1" id="Capa_1" xmlns="http://www.w3.org/2000/svg" xmlns:xlink="http://www.w3.org/1999/xlink" x="0px" y="0px"
	 width="21.754px" height="21.646px" viewBox="0 0 21.754 21.646" enable-background="new 0 0 21.754 21.646" xml:space="preserve">
<path fill="#231F20" d="M11.638,8.14l-1.131-1.131l3.042-3.042l4.256,4.256l-3.042,3.042l-2.209-2.208l1.575-1.575
	c0.252-0.252,0.252-0.664,0-0.917c-0.252-0.252-0.664-0.252-0.916,0L11.638,8.14z M5.136,16.473c-0.252,0.252-0.664,0.252-0.916,0
	c-0.252-0.252-0.252-0.664,0-0.916l3.802-3.801l-1.131-1.131l-4.846,4.846l-1.707,5.962l5.963-1.706l4.846-4.847l-2.209-2.208
	L5.136,16.473z M21.754,4.251L17.51,0.006L14.696,2.82l4.244,4.246L21.754,4.251z M16.51,12.659c-0.35,0.001-0.69,0.042-1.016,0.117
	L8.717,6.037c0.178-0.485,0.273-1.01,0.272-1.557C8.982,2,6.963-0.007,4.482,0C4.45,0,4.417,0,4.385,0.001l0.337,1.241
	c0.868,0.421,1.468,1.31,1.47,2.342c0.003,1.439-1.161,2.61-2.601,2.615c-1.294,0.003-2.37-0.937-2.578-2.172L0.187,3.206
	C0.063,3.618-0.002,4.055-0.001,4.507c0.008,2.48,2.026,4.488,4.508,4.48c0.425-0.001,0.836-0.062,1.225-0.173l6.642,6.605
	c-0.225,0.537-0.348,1.127-0.347,1.746c0.009,2.48,2.026,4.487,4.509,4.48c0.032,0,0.064,0,0.096-0.001l-0.336-1.241
	c-0.869-0.422-1.469-1.311-1.473-2.341c-0.003-1.439,1.161-2.61,2.602-2.614c1.293-0.005,2.369,0.936,2.578,2.171l0.826,0.821
	c0.125-0.412,0.189-0.849,0.188-1.301C21.01,14.659,18.991,12.652,16.51,12.659z"/>
</svg>
