<?xml version="1.0" encoding="utf-8"?>
<!DOCTYPE svg PUBLIC "-//W3C//DTD SVG 1.1//EN" "http://www.w3.org/Graphics/SVG/1.1/DTD/svg11.dtd">
<svg version="1.1" id="Layer_1" xmlns="http://www.w3.org/2000/svg" xmlns:xlink="http://www.w3.org/1999/xlink" x="0px" y="0px"
	 width="512px" height="512px" viewBox="0 0 512 512" enable-background="new 0 0 512 512" xml:space="preserve">
<path d="M416,160c0,87-52.438,97.125-62.281,192c0,8.844-7.156,16-16,16H174.281c-8.844,0-16-7.156-16-16h-0.031
	C148.438,257.125,96,247,96,160C96,71.625,167.625,0,256,0S416,71.625,416,160z M336,384H176c-8.844,0-16,7.156-16,16
	s7.156,16,16,16h160c8.844,0,16-7.156,16-16S344.844,384,336,384z M336,432H176c-8.844,0-16,7.156-16,16s7.156,16,16,16h160
	c8.844,0,16-7.156,16-16S344.844,432,336,432z M224,512h64c17.688,0,32-14.313,32-32H192C192,497.688,206.313,512,224,512z" style="fill: rgb(38, 140, 192)"/>
</svg>
